<?xml version="1.0" standalone="no"?>
<!DOCTYPE svg PUBLIC "-//W3C//DTD SVG 20010904//EN"
 "http://www.w3.org/TR/2001/REC-SVG-20010904/DTD/svg10.dtd">
<svg version="1.0" xmlns="http://www.w3.org/2000/svg"
 width="1080.000000pt" height="421.000000pt" viewBox="0 0 1080.000000 421.000000"
 preserveAspectRatio="xMidYMid meet">
<metadata>
Created by potrace 1.16, written by Peter Selinger 2001-2019
</metadata>
<g transform="translate(0.000000,421.000000) scale(0.100000,-0.100000)"
fill="#000000" stroke="none">
<path d="M0 2105 l0 -2105 5400 0 5400 0 0 2105 0 2105 -5400 0 -5400 0 0
-2105z m4730 1196 c305 -69 578 -259 747 -518 47 -72 112 -203 136 -275 4 -11
17 -18 32 -18 22 0 25 -4 25 -36 l0 -36 35 31 c84 73 226 61 277 -26 l21 -35
25 32 c74 95 250 89 306 -10 25 -42 32 -158 21 -365 l-7 -145 -69 0 -69 0 0
213 c0 191 -2 216 -17 230 -47 41 -128 24 -160 -35 -15 -27 -18 -64 -21 -215
l-4 -183 -75 0 -75 0 3 211 4 211 -24 19 c-44 36 -124 16 -151 -38 -11 -20
-15 -80 -18 -215 -2 -104 -7 -188 -12 -188 -4 0 -10 -17 -14 -39 -3 -21 -18
-74 -32 -117 -131 -392 -441 -685 -837 -789 -611 -161 -1246 182 -1447 783
-74 223 -80 479 -14 711 32 115 121 292 193 389 181 239 467 416 746 461 39 6
81 13 95 15 59 10 299 -4 380 -23z m3200 -786 l0 -65 80 0 80 0 0 -60 0 -60
-79 0 -78 0 -7 -77 c-12 -147 -8 -208 16 -238 18 -23 27 -26 57 -22 20 3 43 8
52 12 13 5 21 -4 34 -45 21 -63 13 -75 -60 -90 -99 -21 -191 14 -225 85 -18
36 -20 62 -20 213 l0 172 -46 0 -46 0 6 31 c3 17 6 42 6 55 0 21 5 24 40 24
l40 0 0 43 c0 68 18 81 118 86 l32 1 0 -65z m-1048 -60 c90 -46 131 -124 126
-242 l-3 -68 -187 4 c-209 4 -203 6 -174 -63 22 -54 60 -76 127 -76 53 0 63 3
97 34 l38 35 47 -31 c26 -17 47 -34 47 -39 0 -5 -16 -27 -36 -48 -48 -54 -110
-76 -204 -75 -164 2 -261 92 -276 255 -20 208 104 347 298 335 36 -3 81 -12
100 -21z m578 4 c116 -26 173 -109 168 -246 l-3 -78 -187 4 c-105 2 -188 0
-188 -5 0 -33 25 -87 51 -108 25 -21 41 -26 85 -26 61 0 89 11 119 46 l20 24
48 -31 c26 -17 47 -35 47 -40 0 -18 -65 -81 -104 -101 -31 -17 -59 -22 -116
-22 -90 0 -144 14 -192 51 -72 57 -103 130 -102 248 2 209 153 330 354 284z
m866 -443 c21 -18 28 -32 28 -60 0 -80 -102 -119 -159 -61 -35 34 -33 78 4
116 38 37 88 39 127 5z"/>
<path d="M4279 3264 c-367 -66 -676 -295 -839 -623 -241 -482 -111 -1080 308
-1413 466 -370 1119 -334 1538 86 137 136 230 290 288 474 33 105 33 122 2
122 -57 0 -56 -5 -56 220 0 114 3 241 6 283 6 65 10 77 25 77 16 0 15 9 -16
81 -183 434 -605 712 -1074 708 -58 0 -140 -7 -182 -15z m101 -665 c0 -5 3 -8
8 -6 19 12 177 17 210 7 56 -17 82 -32 82 -47 0 -13 12 -17 40 -13 8 1 12 -1
8 -5 -4 -4 16 -25 45 -46 78 -56 103 -92 156 -224 15 -37 28 -124 17 -118 -6
4 -7 -1 -2 -12 6 -18 -12 -114 -24 -125 -12 -12 -39 -81 -29 -74 7 4 10 1 7
-7 -3 -8 -11 -13 -17 -12 -14 4 -15 -14 -1 -22 14 -8 13 -35 -1 -35 -6 0 -8 7
-5 16 12 31 -15 2 -36 -39 -24 -48 -111 -137 -133 -137 -18 0 -20 -17 -2 -23
6 -2 0 -6 -15 -9 -17 -3 -25 -1 -21 5 4 7 -1 8 -13 3 -10 -4 -31 -10 -46 -13
-15 -3 -26 -8 -24 -12 2 -3 -60 -6 -137 -6 -139 0 -143 1 -192 29 -64 38 -134
112 -164 173 -12 26 -27 56 -32 65 -5 10 -9 26 -9 36 0 10 -4 22 -9 28 -15 15
-40 128 -31 139 9 11 7 42 -5 88 -6 23 -5 26 10 21 14 -6 16 -1 14 27 -3 36 7
63 20 54 5 -2 11 13 15 34 3 21 12 51 20 66 8 16 13 32 10 36 -6 10 50 49 71
49 11 0 15 6 10 19 -4 15 3 23 37 39 61 29 109 37 119 21 6 -10 11 -6 18 14
10 26 31 38 31 16z"/>
<path d="M6717 2355 c-21 -7 -40 -15 -41 -17 -24 -31 -36 -57 -36 -75 0 -23 2
-23 115 -23 l115 0 0 30 c0 38 -44 86 -85 93 -16 3 -47 -1 -68 -8z"/>
<path d="M7340 2347 c-36 -13 -80 -66 -80 -98 0 -17 10 -19 115 -19 l115 0 0
25 c0 74 -71 118 -150 92z"/>
</g>
</svg>
